# xmcd
#
# Track frame offsets: 
#        150
#        15057
#        27767
#        40188
#        56081
#        72609
#        87006
#        101752
#        118785
#        136115
#        150222
#        165410
#        179910
#        197750
#        209735
#        230276
#
# Disc length: 3247 seconds
#
# Revision: 0
# Processed by: cddbd v1.5.2PL0 Copyright (c) Steve Scherf et al.
# Submitted via: ExactAudioCopy v1.0b3
#
DISCID=d00cad10
DTITLE=小林旭 - 小林旭大全集~渡り鳥AKIRA 50HISTORY~ Disc 1 CRCN-50120-24
DYEAR=1900
DGENRE=Blues
TTITLE0=女を忘れろ
TTITLE1=ダイナマイトが百五十屯 
TTITLE2=真夜中の街角 
TTITLE3=俺に逆らうな
TTITLE4=十字路 
TTITLE5=ひとりぼっちの歌 
TTITLE6=銀座旋風児
TTITLE7=ギターを持った渡り鳥 
TTITLE8=口笛が流れる港町
TTITLE9=ダンチョネ節 
TTITLE10=ズンドコ節
TTITLE11=アキラのツーレロ節
TTITLE12=さすらい 
TTITLE13=北帰行
TTITLE14=惜別の歌 
TTITLE15=サーカスの歌 
EXTD=
EXTT0=
EXTT1=
EXTT2=
EXTT3=
EXTT4=
EXTT5=
EXTT6=
EXTT7=
EXTT8=
EXTT9=
EXTT10=
EXTT11=
EXTT12=
EXTT13=
EXTT14=
EXTT15=
PLAYORDER=
